<svg xmlns="http://www.w3.org/2000/svg" viewBox="0 0 220 48" fill="none">
  <path d="M24 3.5 40 10v11.7c0 10.1-6.6 18.8-16 22.8-9.4-4-16-12.7-16-22.8V10l16-6.5Z" fill="#10231e"/>
  <path d="M24 7.7 36.2 12.6v9.1c0 7.7-4.8 14.5-12.2 18-7.4-3.5-12.2-10.3-12.2-18v-9.1L24 7.7Z" stroke="#b69358" stroke-width="1.25"/>
  <path d="M14.8 22.7c2.6-4 5.6-6 9.2-6s6.6 2 9.2 6c-2.6 4-5.6 6-9.2 6s-6.6-2-9.2-6Z" fill="#f7f3e9"/>
  <circle cx="24" cy="22.7" r="4.2" fill="#326455"/><circle cx="24" cy="22.7" r="1.5" fill="#f7f3e9"/>
  <path d="m19.4 32 3 2.5 6.2-6" stroke="#b69358" stroke-width="1.8" stroke-linecap="round" stroke-linejoin="round"/>
  <text x="56" y="30" font-family="Georgia, serif" font-size="23" font-weight="600" fill="#10231e">Invigilo</text>
</svg>
